<svg version="1.1" xmlns="http://www.w3.org/2000/svg" viewBox="0 0 866.2513152277074 875.3149518068803" width="866.2513152277074" height="875.3149518068803">
  <!-- svg-source:excalidraw -->
  
  <defs>
    <style>
      @font-face {
        font-family: "Virgil";
        src: url("https://excalidraw.com/Virgil.woff2");
      }
      @font-face {
        font-family: "Cascadia";
        src: url("https://excalidraw.com/Cascadia.woff2");
      }
    </style>
  </defs>
  <g stroke-linecap="round" transform="translate(10 10) rotate(0 423.1256576138537 427.6574759034402)"><path d="M846.25 427.66 C846.25 434.44, 846.09 441.23, 845.77 448.01 C845.45 454.78, 844.97 461.56, 844.34 468.31 C843.7 475.06, 842.9 481.81, 841.94 488.52 C840.99 495.23, 839.87 501.93, 838.6 508.59 C837.33 515.25, 835.91 521.89, 834.32 528.48 C832.74 535.07, 831 541.63, 829.11 548.14 C827.22 554.65, 825.17 561.12, 822.98 567.53 C820.78 573.94, 818.44 580.3, 815.94 586.6 C813.45 592.9, 810.8 599.14, 808.01 605.31 C805.23 611.48, 802.29 617.59, 799.21 623.62 C796.14 629.65, 792.92 635.61, 789.56 641.49 C786.21 647.36, 782.71 653.16, 779.08 658.87 C775.45 664.57, 771.69 670.2, 767.79 675.72 C763.9 681.25, 759.87 686.69, 755.72 692.02 C751.58 697.35, 747.3 702.59, 742.9 707.71 C738.51 712.84, 733.99 717.87, 729.36 722.77 C724.72 727.68, 719.97 732.49, 715.12 737.17 C710.26 741.85, 705.29 746.42, 700.21 750.86 C695.14 755.3, 689.96 759.63, 684.68 763.82 C679.41 768.01, 674.03 772.08, 668.56 776.02 C663.1 779.95, 657.53 783.76, 651.88 787.43 C646.24 791.09, 640.5 794.63, 634.69 798.02 C628.88 801.41, 622.98 804.67, 617.01 807.77 C611.05 810.88, 605 813.85, 598.9 816.67 C592.79 819.49, 586.62 822.16, 580.39 824.68 C574.16 827.2, 567.86 829.58, 561.52 831.79 C555.17 834.01, 548.77 836.08, 542.33 837.99 C535.89 839.9, 529.4 841.66, 522.88 843.26 C516.36 844.86, 509.79 846.3, 503.2 847.59 C496.61 848.87, 489.99 850, 483.34 850.96 C476.7 851.93, 470.03 852.73, 463.35 853.38 C456.67 854.02, 449.96 854.51, 443.26 854.83 C436.56 855.15, 429.84 855.31, 423.13 855.31 C416.41 855.31, 409.7 855.15, 402.99 854.83 C396.29 854.51, 389.59 854.02, 382.91 853.38 C376.22 852.73, 369.55 851.93, 362.91 850.96 C356.27 850, 349.64 848.87, 343.05 847.59 C336.46 846.3, 329.89 844.86, 323.37 843.26 C316.85 841.66, 310.36 839.9, 303.92 837.99 C297.48 836.08, 291.08 834.01, 284.73 831.79 C278.39 829.58, 272.1 827.2, 265.87 824.68 C259.64 822.16, 253.46 819.49, 247.35 816.67 C241.25 813.85, 235.2 810.88, 229.24 807.77 C223.27 804.67, 217.37 801.41, 211.56 798.02 C205.75 794.63, 200.01 791.09, 194.37 787.43 C188.72 783.76, 183.16 779.95, 177.69 776.02 C172.22 772.08, 166.84 768.01, 161.57 763.82 C156.29 759.63, 151.11 755.3, 146.04 750.86 C140.97 746.42, 135.99 741.85, 131.14 737.17 C126.28 732.49, 121.53 727.68, 116.9 722.77 C112.26 717.87, 107.74 712.84, 103.35 707.71 C98.95 702.59, 94.67 697.35, 90.53 692.02 C86.38 686.69, 82.35 681.25, 78.46 675.72 C74.56 670.2, 70.8 664.57, 67.17 658.87 C63.54 653.16, 60.04 647.36, 56.69 641.49 C53.33 635.61, 50.11 629.65, 47.04 623.62 C43.96 617.59, 41.02 611.48, 38.24 605.31 C35.45 599.14, 32.8 592.9, 30.31 586.6 C27.82 580.3, 25.47 573.94, 23.27 567.53 C21.08 561.12, 19.03 554.65, 17.14 548.14 C15.25 541.63, 13.51 535.07, 11.93 528.48 C10.35 521.89, 8.92 515.25, 7.65 508.59 C6.38 501.93, 5.26 495.23, 4.31 488.52 C3.35 481.81, 2.55 475.06, 1.92 468.31 C1.28 461.56, 0.8 454.78, 0.48 448.01 C0.16 441.23, 0 434.44, 0 427.66 C0 420.87, 0.16 414.08, 0.48 407.31 C0.8 400.53, 1.28 393.76, 1.92 387.01 C2.55 380.25, 3.35 373.51, 4.31 366.8 C5.26 360.08, 6.38 353.38, 7.65 346.72 C8.92 340.06, 10.35 333.43, 11.93 326.83 C13.51 320.24, 15.25 313.68, 17.14 307.17 C19.03 300.66, 21.08 294.19, 23.27 287.78 C25.47 281.37, 27.82 275.01, 30.31 268.71 C32.8 262.42, 35.45 256.17, 38.24 250 C41.02 243.83, 43.96 237.72, 47.04 231.69 C50.11 225.66, 53.33 219.7, 56.69 213.83 C60.04 207.95, 63.54 202.15, 67.17 196.45 C70.8 190.74, 74.56 185.12, 78.46 179.59 C82.35 174.07, 86.38 168.63, 90.53 163.3 C94.67 157.97, 98.95 152.73, 103.35 147.6 C107.74 142.48, 112.26 137.45, 116.9 132.54 C121.53 127.63, 126.28 122.83, 131.14 118.15 C135.99 113.47, 140.97 108.9, 146.04 104.46 C151.11 100.01, 156.29 95.69, 161.57 91.5 C166.84 87.3, 172.22 83.23, 177.69 79.3 C183.16 75.36, 188.72 71.56, 194.37 67.89 C200.01 64.22, 205.75 60.69, 211.56 57.3 C217.37 53.9, 223.27 50.65, 229.24 47.54 C235.2 44.43, 241.25 41.46, 247.35 38.65 C253.46 35.83, 259.64 33.15, 265.87 30.63 C272.1 28.11, 278.39 25.74, 284.73 23.52 C291.08 21.3, 297.48 19.23, 303.92 17.32 C310.36 15.41, 316.85 13.65, 323.37 12.05 C329.89 10.46, 336.46 9.01, 343.05 7.73 C349.64 6.44, 356.27 5.32, 362.91 4.35 C369.55 3.39, 376.22 2.58, 382.91 1.94 C389.59 1.29, 396.29 0.81, 402.99 0.48 C409.7 0.16, 416.41 0, 423.13 0 C429.84 0, 436.56 0.16, 443.26 0.48 C449.96 0.81, 456.67 1.29, 463.35 1.94 C470.03 2.58, 476.7 3.39, 483.34 4.35 C489.99 5.32, 496.61 6.44, 503.2 7.73 C509.79 9.01, 516.36 10.46, 522.88 12.05 C529.4 13.65, 535.89 15.41, 542.33 17.32 C548.77 19.23, 555.17 21.3, 561.52 23.52 C567.86 25.74, 574.16 28.11, 580.39 30.63 C586.62 33.15, 592.79 35.83, 598.9 38.65 C605 41.46, 611.05 44.43, 617.01 47.54 C622.98 50.65, 628.88 53.9, 634.69 57.3 C640.5 60.69, 646.24 64.22, 651.88 67.89 C657.53 71.56, 663.1 75.36, 668.56 79.3 C674.03 83.23, 679.41 87.3, 684.68 91.5 C689.96 95.69, 695.14 100.01, 700.21 104.46 C705.29 108.9, 710.26 113.47, 715.12 118.15 C719.97 122.83, 724.72 127.63, 729.36 132.54 C733.99 137.45, 738.51 142.48, 742.9 147.6 C747.3 152.73, 751.58 157.97, 755.72 163.3 C759.87 168.63, 763.9 174.07, 767.79 179.59 C771.69 185.12, 775.45 190.74, 779.08 196.45 C782.71 202.15, 786.21 207.95, 789.56 213.83 C792.92 219.7, 796.14 225.66, 799.21 231.69 C802.29 237.72, 805.23 243.83, 808.01 250 C810.8 256.17, 813.45 262.42, 815.94 268.71 C818.44 275.01, 820.78 281.37, 822.98 287.78 C825.17 294.19, 827.22 300.66, 829.11 307.17 C831 313.68, 832.74 320.24, 834.32 326.83 C835.91 333.43, 837.33 340.06, 838.6 346.72 C839.87 353.38, 840.99 360.08, 841.94 366.8 C842.9 373.51, 843.7 380.25, 844.34 387.01 C844.97 393.76, 845.45 400.53, 845.77 407.31 C846.09 414.08, 846.25 420.87, 846.25 427.66" stroke="#000000" stroke-width="1" fill="none"></path></g><g stroke-linecap="round" transform="translate(186.5816421988743 622.2210058443512) rotate(0 9.713702750001772 8.940536036123945)"><path d="M19.43 8.94 C19.43 9.46, 19.38 9.98, 19.28 10.49 C19.18 11, 19.03 11.51, 18.84 12 C18.65 12.48, 18.41 12.96, 18.13 13.41 C17.84 13.86, 17.52 14.29, 17.15 14.69 C16.79 15.08, 16.39 15.46, 15.96 15.79 C15.53 16.12, 15.06 16.42, 14.57 16.68 C14.08 16.94, 13.56 17.16, 13.04 17.34 C12.51 17.52, 11.95 17.66, 11.4 17.75 C10.85 17.84, 10.28 17.88, 9.71 17.88 C9.15 17.88, 8.58 17.84, 8.03 17.75 C7.47 17.66, 6.92 17.52, 6.39 17.34 C5.86 17.16, 5.34 16.94, 4.86 16.68 C4.37 16.42, 3.9 16.12, 3.47 15.79 C3.04 15.46, 2.63 15.08, 2.27 14.69 C1.91 14.29, 1.58 13.86, 1.3 13.41 C1.02 12.96, 0.78 12.48, 0.59 12 C0.39 11.51, 0.25 11, 0.15 10.49 C0.05 9.98, 0 9.46, 0 8.94 C0 8.42, 0.05 7.9, 0.15 7.39 C0.25 6.88, 0.39 6.37, 0.59 5.88 C0.78 5.4, 1.02 4.92, 1.3 4.47 C1.58 4.02, 1.91 3.59, 2.27 3.19 C2.63 2.8, 3.04 2.42, 3.47 2.09 C3.9 1.76, 4.37 1.46, 4.86 1.2 C5.34 0.94, 5.86 0.72, 6.39 0.54 C6.92 0.36, 7.47 0.23, 8.03 0.14 C8.58 0.05, 9.15 0, 9.71 0 C10.28 0, 10.85 0.05, 11.4 0.14 C11.95 0.23, 12.51 0.36, 13.04 0.54 C13.56 0.72, 14.08 0.94, 14.57 1.2 C15.06 1.46, 15.53 1.76, 15.96 2.09 C16.39 2.42, 16.79 2.8, 17.15 3.19 C17.52 3.59, 17.84 4.02, 18.13 4.47 C18.41 4.92, 18.65 5.4, 18.84 5.88 C19.03 6.37, 19.18 6.88, 19.28 7.39 C19.38 7.9, 19.4 8.68, 19.43 8.94 C19.45 9.2, 19.45 8.68, 19.43 8.94" stroke="#000000" stroke-width="2" fill="none"></path></g><g stroke-linecap="round"><g transform="translate(195.2338325311162 640.0397551044456) rotate(0 -0.47663453890822893 10.838887720668708)"><path d="M0 0 C-0.16 3.61, -0.79 18.06, -0.95 21.68 M0 0 C-0.16 3.61, -0.79 18.06, -0.95 21.68" stroke="#000000" stroke-width="2" fill="none"></path></g></g><g stroke-linecap="round"><g transform="translate(194.32786306403239 662.2723913639765) rotate(0 4.290620458072709 6.610120599706249)"><path d="M0 0 C1.43 2.2, 7.15 11.02, 8.58 13.22 M0 0 C1.43 2.2, 7.15 11.02, 8.58 13.22" stroke="#000000" stroke-width="2" fill="none"></path></g></g><g stroke-linecap="round"><g transform="translate(193.06532730066505 661.3045685597808) rotate(0 -3.6711774790717584 6.140762923987438)"><path d="M0 0 C-1.22 2.05, -6.12 10.23, -7.34 12.28 M0 0 C-1.22 2.05, -6.12 10.23, -7.34 12.28" stroke="#000000" stroke-width="2" fill="none"></path></g></g><g stroke-linecap="round"><g transform="translate(183.2637932683864 652.2661739566715) rotate(0 5.6727422717836475 -3.633362066734719)"><path d="M0 0 C1.89 -1.21, 9.45 -6.06, 11.35 -7.27 M0 0 C1.89 -1.21, 9.45 -6.06, 11.35 -7.27" stroke="#000000" stroke-width="2" fill="none"></path></g></g><g stroke-linecap="round"><g transform="translate(194.34172497595307 644.6335312203541) rotate(0 4.058136996223027 4.835468317340656)"><path d="M0 0 C1.35 1.61, 6.76 8.06, 8.12 9.67 M0 0 C1.35 1.61, 6.76 8.06, 8.12 9.67" stroke="#000000" stroke-width="2" fill="none"></path></g></g><g stroke-linecap="round" transform="translate(397.75004045952096 215.28131684667693) rotate(0 31.179537080300804 29.89112645714789)"><path d="M62.36 29.89 C62.36 31.62, 62.2 33.38, 61.89 35.08 C61.57 36.79, 61.1 38.49, 60.48 40.11 C59.86 41.74, 59.08 43.34, 58.18 44.84 C57.28 46.34, 56.22 47.78, 55.06 49.1 C53.9 50.43, 52.6 51.68, 51.22 52.79 C49.84 53.9, 48.33 54.91, 46.77 55.78 C45.21 56.64, 43.54 57.39, 41.84 57.98 C40.15 58.57, 38.37 59.03, 36.59 59.33 C34.82 59.63, 32.98 59.78, 31.18 59.78 C29.37 59.78, 27.54 59.63, 25.77 59.33 C23.99 59.03, 22.21 58.57, 20.52 57.98 C18.82 57.39, 17.15 56.64, 15.59 55.78 C14.03 54.91, 12.52 53.9, 11.14 52.79 C9.76 51.68, 8.45 50.43, 7.29 49.1 C6.13 47.78, 5.08 46.34, 4.18 44.84 C3.27 43.34, 2.5 41.74, 1.88 40.11 C1.26 38.49, 0.79 36.79, 0.47 35.08 C0.16 33.38, 0 31.62, 0 29.89 C0 28.16, 0.16 26.4, 0.47 24.7 C0.79 23, 1.26 21.29, 1.88 19.67 C2.5 18.04, 3.27 16.44, 4.18 14.95 C5.08 13.45, 6.13 12, 7.29 10.68 C8.45 9.35, 9.76 8.11, 11.14 6.99 C12.52 5.88, 14.03 4.87, 15.59 4 C17.15 3.14, 18.82 2.39, 20.52 1.8 C22.21 1.21, 23.99 0.75, 25.77 0.45 C27.54 0.15, 29.37 0, 31.18 0 C32.98 0, 34.82 0.15, 36.59 0.45 C38.37 0.75, 40.15 1.21, 41.84 1.8 C43.54 2.39, 45.21 3.14, 46.77 4 C48.33 4.87, 49.84 5.88, 51.22 6.99 C52.6 8.11, 53.9 9.35, 55.06 10.68 C56.22 12, 57.28 13.45, 58.18 14.95 C59.08 16.44, 59.86 18.04, 60.48 19.67 C61.1 21.29, 61.57 23, 61.89 24.7 C62.2 26.4, 62.28 29.03, 62.36 29.89 C62.44 30.76, 62.44 29.03, 62.36 29.89" stroke="#000000" stroke-width="2" fill="none"></path></g><g stroke-linecap="round"><g transform="translate(429.72661541880393 216.7822586124946) rotate(0 -0.5153642492611539 29.118080083256118)"><path d="M0 0 C-0.17 9.71, -0.86 48.53, -1.03 58.24 M0 0 C-0.17 9.71, -0.86 48.53, -1.03 58.24" stroke="#000000" stroke-width="2" fill="none"></path></g></g><g stroke-linecap="round"><g transform="translate(410.80663359263383 226.42345476811195) rotate(0 20.456489207485617 3.0392390394551256)"><path d="M-1.35 -1.35 C-1.52 -1.43, -2.21 -1.69, -2.38 -1.86 C-2.55 -2.03, -2.72 -2.72, -2.38 -2.38 C-2.03 -2.03, -1.78 -1, -0.32 0.2 C1.14 1.4, 2 3.46, 6.38 4.84 C10.76 6.21, 22.36 8.01, 25.97 8.44 C29.57 8.87, 26.31 7.93, 28.03 7.41 C29.75 6.9, 33.78 6.55, 36.27 5.35 C38.76 4.15, 41.86 1.23, 42.97 0.2 C44.09 -0.83, 42.89 -0.66, 42.97 -0.83 C43.06 -1, 43.49 -1.09, 43.49 -0.83 C43.49 -0.57, 43.06 0.46, 42.97 0.71 M-1.35 -1.35 C-1.52 -1.43, -2.21 -1.69, -2.38 -1.86 C-2.55 -2.03, -2.72 -2.72, -2.38 -2.38 C-2.03 -2.03, -1.78 -1, -0.32 0.2 C1.14 1.4, 2 3.46, 6.38 4.84 C10.76 6.21, 22.36 8.01, 25.97 8.44 C29.57 8.87, 26.31 7.93, 28.03 7.41 C29.75 6.9, 33.78 6.55, 36.27 5.35 C38.76 4.15, 41.86 1.23, 42.97 0.2 C44.09 -0.83, 42.89 -0.66, 42.97 -0.83 C43.06 -1, 43.49 -1.09, 43.49 -0.83 C43.49 -0.57, 43.06 0.46, 42.97 0.71" stroke="#000000" stroke-width="2" fill="none"></path></g></g><g stroke-linecap="round"><g transform="translate(407.5240583811852 284.3536750236532) rotate(0 22.67602696749151 -21.588074422085782)"><path d="M0 -15.5 C1.46 -16.53, 3.69 -19.71, 8.76 -21.68 C13.83 -23.66, 25.68 -26.58, 30.41 -27.35 C35.13 -28.12, 34.96 -27.44, 37.11 -26.32 C39.25 -25.2, 42.09 -21.94, 43.29 -20.65 C44.49 -19.36, 43.98 -19.02, 44.32 -18.59 C44.66 -18.16, 45.18 -18.16, 45.35 -18.07 M0 -15.5 C1.46 -16.53, 3.69 -19.71, 8.76 -21.68 C13.83 -23.66, 25.68 -26.58, 30.41 -27.35 C35.13 -28.12, 34.96 -27.44, 37.11 -26.32 C39.25 -25.2, 42.09 -21.94, 43.29 -20.65 C44.49 -19.36, 43.98 -19.02, 44.32 -18.59 C44.66 -18.16, 45.18 -18.16, 45.35 -18.07" stroke="#000000" stroke-width="2" fill="none"></path></g></g><g stroke-linecap="round"><g transform="translate(397.7031066564854 246.57923356119323) rotate(0 30.406490706409045 0.25768212463058404)"><path d="M0 0 C10.14 0.09, 50.68 0.43, 60.81 0.52 M0 0 C10.14 0.09, 50.68 0.43, 60.81 0.52" stroke="#000000" stroke-width="2" fill="none"></path></g></g><g stroke-linecap="round"><g transform="translate(429.1655392110292 218.90665646539372) rotate(0 7.939830465179909 28.25993779795497)"><path d="M0 -0.67 C0.26 -0.76, 0.86 -1.19, 1.55 -1.19 C2.23 -1.19, 2.58 -1.62, 4.12 -0.67 C5.67 0.27, 9.53 3.36, 10.82 4.48 C12.11 5.6, 11.08 2.76, 11.85 6.03 C12.63 9.29, 14.86 19.68, 15.46 24.06 C16.06 28.44, 15.98 29.22, 15.46 32.31 C14.95 35.4, 13.74 39.27, 12.37 42.62 C10.99 45.97, 8.85 49.92, 7.22 52.41 C5.58 54.9, 3.61 56.79, 2.58 57.56 C1.55 58.34, 1.29 57.05, 1.03 57.05 C0.77 57.05, 1.03 57.48, 1.03 57.56 M0 -0.67 C0.26 -0.76, 0.86 -1.19, 1.55 -1.19 C2.23 -1.19, 2.58 -1.62, 4.12 -0.67 C5.67 0.27, 9.53 3.36, 10.82 4.48 C12.11 5.6, 11.08 2.76, 11.85 6.03 C12.63 9.29, 14.86 19.68, 15.46 24.06 C16.06 28.44, 15.98 29.22, 15.46 32.31 C14.95 35.4, 13.74 39.27, 12.37 42.62 C10.99 45.97, 8.85 49.92, 7.22 52.41 C5.58 54.9, 3.61 56.79, 2.58 57.56 C1.55 58.34, 1.29 57.05, 1.03 57.05 C0.77 57.05, 1.03 57.48, 1.03 57.56" stroke="#000000" stroke-width="2" fill="none"></path></g></g><g stroke-linecap="round"><g transform="translate(452.1410535925638 220.6881261370048) rotate(0 -32.4462404667712 24.693814064910967)"><path d="M-23.58 -1.35 C-23.67 -1.52, -22.55 -3.32, -24.1 -2.38 C-25.64 -1.43, -30.37 1.49, -32.86 4.32 C-35.35 7.16, -37.58 10.42, -39.04 14.63 C-40.5 18.84, -41.53 25.45, -41.62 29.57 C-41.71 33.7, -40.33 36.96, -39.56 39.37 C-38.79 41.77, -37.75 43.15, -36.98 44 C-36.21 44.86, -35.95 43.92, -34.92 44.52 C-33.89 45.12, -31.91 46.41, -30.8 47.61 C-29.68 48.81, -28.99 51.05, -28.22 51.73 C-27.45 52.42, -26.5 51.73, -26.16 51.73 M-23.58 -1.35 C-23.67 -1.52, -22.55 -3.32, -24.1 -2.38 C-25.64 -1.43, -30.37 1.49, -32.86 4.32 C-35.35 7.16, -37.58 10.42, -39.04 14.63 C-40.5 18.84, -41.53 25.45, -41.62 29.57 C-41.71 33.7, -40.33 36.96, -39.56 39.37 C-38.79 41.77, -37.75 43.15, -36.98 44 C-36.21 44.86, -35.95 43.92, -34.92 44.52 C-33.89 45.12, -31.91 46.41, -30.8 47.61 C-29.68 48.81, -28.99 51.05, -28.22 51.73 C-27.45 52.42, -26.5 51.73, -26.16 51.73" stroke="#000000" stroke-width="2" fill="none"></path></g></g><g stroke-linecap="round" transform="translate(678.8516545626265 630.3316048558056) rotate(0 16.91807901031268 20.191792898941912)"><path d="M0 0 L33.84 0 L33.84 40.38 L0 40.38" stroke="none" stroke-width="0" fill="black"></path><path d="M0 0 C11.06 0, 22.13 0, 33.84 0 M0 0 C12.13 0, 24.26 0, 33.84 0 M33.84 0 C33.84 13.11, 33.84 26.23, 33.84 40.38 M33.84 0 C33.84 15.02, 33.84 30.03, 33.84 40.38 M33.84 40.38 C20.37 40.38, 6.9 40.38, 0 40.38 M33.84 40.38 C22.76 40.38, 11.68 40.38, 0 40.38 M0 40.38 C0 27.72, 0 15.05, 0 0 M0 40.38 C0 28.02, 0 15.65, 0 0" stroke="#000000" stroke-width="4" fill="none"></path></g><g stroke-linecap="round" transform="translate(679.1350966501217 665.1011911246487) rotate(0 16.894573548867697 6.380599152770685)"><path d="M33.79 6.38 C33.79 6.75, 33.7 7.12, 33.53 7.49 C33.36 7.85, 33.1 8.22, 32.77 8.56 C32.44 8.91, 32.01 9.25, 31.53 9.57 C31.04 9.89, 30.47 10.2, 29.84 10.48 C29.21 10.76, 28.5 11.03, 27.75 11.27 C27.01 11.51, 26.19 11.72, 25.34 11.91 C24.49 12.09, 23.59 12.25, 22.67 12.38 C21.75 12.5, 20.79 12.6, 19.83 12.66 C18.87 12.73, 17.87 12.76, 16.89 12.76 C15.92 12.76, 14.92 12.73, 13.96 12.66 C13 12.6, 12.04 12.5, 11.12 12.38 C10.2 12.25, 9.29 12.09, 8.45 11.91 C7.6 11.72, 6.78 11.51, 6.03 11.27 C5.29 11.03, 4.58 10.76, 3.95 10.48 C3.32 10.2, 2.75 9.89, 2.26 9.57 C1.77 9.25, 1.35 8.91, 1.02 8.56 C0.68 8.22, 0.43 7.85, 0.26 7.49 C0.09 7.12, 0 6.75, 0 6.38 C0 6.01, 0.09 5.64, 0.26 5.27 C0.43 4.91, 0.68 4.55, 1.02 4.2 C1.35 3.85, 1.77 3.51, 2.26 3.19 C2.75 2.87, 3.32 2.56, 3.95 2.28 C4.58 2, 5.29 1.73, 6.03 1.49 C6.78 1.26, 7.6 1.04, 8.45 0.85 C9.29 0.67, 10.2 0.51, 11.12 0.38 C12.04 0.26, 13 0.16, 13.96 0.1 C14.92 0.03, 15.92 0, 16.89 0 C17.87 0, 18.87 0.03, 19.83 0.1 C20.79 0.16, 21.75 0.26, 22.67 0.38 C23.59 0.51, 24.49 0.67, 25.34 0.85 C26.19 1.04, 27.01 1.26, 27.75 1.49 C28.5 1.73, 29.21 2, 29.84 2.28 C30.47 2.56, 31.04 2.87, 31.53 3.19 C32.01 3.51, 32.44 3.85, 32.77 4.2 C33.1 4.55, 33.36 4.91, 33.53 5.27 C33.7 5.64, 33.75 6.2, 33.79 6.38 C33.83 6.57, 33.83 6.2, 33.79 6.38" stroke="none" stroke-width="0" fill="black"></path><path d="M33.79 6.38 C33.79 6.75, 33.7 7.12, 33.53 7.49 C33.36 7.85, 33.1 8.22, 32.77 8.56 C32.44 8.91, 32.01 9.25, 31.53 9.57 C31.04 9.89, 30.47 10.2, 29.84 10.48 C29.21 10.76, 28.5 11.03, 27.75 11.27 C27.01 11.51, 26.19 11.72, 25.34 11.91 C24.49 12.09, 23.59 12.25, 22.67 12.38 C21.75 12.5, 20.79 12.6, 19.83 12.66 C18.87 12.73, 17.87 12.76, 16.89 12.76 C15.92 12.76, 14.92 12.73, 13.96 12.66 C13 12.6, 12.04 12.5, 11.12 12.38 C10.2 12.25, 9.29 12.09, 8.45 11.91 C7.6 11.72, 6.78 11.51, 6.03 11.27 C5.29 11.03, 4.58 10.76, 3.95 10.48 C3.32 10.2, 2.75 9.89, 2.26 9.57 C1.77 9.25, 1.35 8.91, 1.02 8.56 C0.68 8.22, 0.43 7.85, 0.26 7.49 C0.09 7.12, 0 6.75, 0 6.38 C0 6.01, 0.09 5.64, 0.26 5.27 C0.43 4.91, 0.68 4.55, 1.02 4.2 C1.35 3.85, 1.77 3.51, 2.26 3.19 C2.75 2.87, 3.32 2.56, 3.95 2.28 C4.58 2, 5.29 1.73, 6.03 1.49 C6.78 1.26, 7.6 1.04, 8.45 0.85 C9.29 0.67, 10.2 0.51, 11.12 0.38 C12.04 0.26, 13 0.16, 13.96 0.1 C14.92 0.03, 15.92 0, 16.89 0 C17.87 0, 18.87 0.03, 19.83 0.1 C20.79 0.16, 21.75 0.26, 22.67 0.38 C23.59 0.51, 24.49 0.67, 25.34 0.85 C26.19 1.04, 27.01 1.26, 27.75 1.49 C28.5 1.73, 29.21 2, 29.84 2.28 C30.47 2.56, 31.04 2.87, 31.53 3.19 C32.01 3.51, 32.44 3.85, 32.77 4.2 C33.1 4.55, 33.36 4.91, 33.53 5.27 C33.7 5.64, 33.75 6.2, 33.79 6.38 C33.83 6.57, 33.83 6.2, 33.79 6.38" stroke="#000000" stroke-width="4" fill="none"></path></g><g stroke-linecap="round" transform="translate(679.0400337159898 625.2963463413079) rotate(0 16.894573548867697 6.3805991527707135)"><path d="M33.79 6.38 C33.79 6.75, 33.7 7.12, 33.53 7.49 C33.36 7.85, 33.1 8.22, 32.77 8.56 C32.44 8.91, 32.01 9.25, 31.53 9.57 C31.04 9.89, 30.47 10.2, 29.84 10.48 C29.21 10.76, 28.5 11.03, 27.75 11.27 C27.01 11.51, 26.19 11.72, 25.34 11.91 C24.49 12.09, 23.59 12.25, 22.67 12.38 C21.75 12.5, 20.79 12.6, 19.83 12.66 C18.87 12.73, 17.87 12.76, 16.89 12.76 C15.92 12.76, 14.92 12.73, 13.96 12.66 C13 12.6, 12.04 12.5, 11.12 12.38 C10.2 12.25, 9.29 12.09, 8.45 11.91 C7.6 11.72, 6.78 11.51, 6.03 11.27 C5.29 11.03, 4.58 10.76, 3.95 10.48 C3.32 10.2, 2.75 9.89, 2.26 9.57 C1.77 9.25, 1.35 8.91, 1.02 8.56 C0.68 8.22, 0.43 7.85, 0.26 7.49 C0.09 7.12, 0 6.75, 0 6.38 C0 6.01, 0.09 5.64, 0.26 5.27 C0.43 4.91, 0.68 4.55, 1.02 4.2 C1.35 3.85, 1.77 3.51, 2.26 3.19 C2.75 2.87, 3.32 2.56, 3.95 2.28 C4.58 2, 5.29 1.73, 6.03 1.49 C6.78 1.26, 7.6 1.04, 8.45 0.85 C9.29 0.67, 10.2 0.51, 11.12 0.38 C12.04 0.26, 13 0.16, 13.96 0.1 C14.92 0.03, 15.92 0, 16.89 0 C17.87 0, 18.87 0.03, 19.83 0.1 C20.79 0.16, 21.75 0.26, 22.67 0.38 C23.59 0.51, 24.49 0.67, 25.34 0.85 C26.19 1.04, 27.01 1.26, 27.75 1.49 C28.5 1.73, 29.21 2, 29.84 2.28 C30.47 2.56, 31.04 2.87, 31.53 3.19 C32.01 3.51, 32.44 3.85, 32.77 4.2 C33.1 4.55, 33.36 4.91, 33.53 5.27 C33.7 5.64, 33.75 6.2, 33.79 6.38 C33.83 6.57, 33.83 6.2, 33.79 6.38" stroke="none" stroke-width="0" fill="black"></path><path d="M33.79 6.38 C33.79 6.75, 33.7 7.12, 33.53 7.49 C33.36 7.85, 33.1 8.22, 32.77 8.56 C32.44 8.91, 32.01 9.25, 31.53 9.57 C31.04 9.89, 30.47 10.2, 29.84 10.48 C29.21 10.76, 28.5 11.03, 27.75 11.27 C27.01 11.51, 26.19 11.72, 25.34 11.91 C24.49 12.09, 23.59 12.25, 22.67 12.38 C21.75 12.5, 20.79 12.6, 19.83 12.66 C18.87 12.73, 17.87 12.76, 16.89 12.76 C15.92 12.76, 14.92 12.73, 13.96 12.66 C13 12.6, 12.04 12.5, 11.12 12.38 C10.2 12.25, 9.29 12.09, 8.45 11.91 C7.6 11.72, 6.78 11.51, 6.03 11.27 C5.29 11.03, 4.58 10.76, 3.95 10.48 C3.32 10.2, 2.75 9.89, 2.26 9.57 C1.77 9.25, 1.35 8.91, 1.02 8.56 C0.68 8.22, 0.43 7.85, 0.26 7.49 C0.09 7.12, 0 6.75, 0 6.38 C0 6.01, 0.09 5.64, 0.26 5.27 C0.43 4.91, 0.68 4.55, 1.02 4.2 C1.35 3.85, 1.77 3.51, 2.26 3.19 C2.75 2.87, 3.32 2.56, 3.95 2.28 C4.58 2, 5.29 1.73, 6.03 1.49 C6.78 1.26, 7.6 1.04, 8.45 0.85 C9.29 0.67, 10.2 0.51, 11.12 0.38 C12.04 0.26, 13 0.16, 13.96 0.1 C14.92 0.03, 15.92 0, 16.89 0 C17.87 0, 18.87 0.03, 19.83 0.1 C20.79 0.16, 21.75 0.26, 22.67 0.38 C23.59 0.51, 24.49 0.67, 25.34 0.85 C26.19 1.04, 27.01 1.26, 27.75 1.49 C28.5 1.73, 29.21 2, 29.84 2.28 C30.47 2.56, 31.04 2.87, 31.53 3.19 C32.01 3.51, 32.44 3.85, 32.77 4.2 C33.1 4.55, 33.36 4.91, 33.53 5.27 C33.7 5.64, 33.75 6.2, 33.79 6.38 C33.83 6.57, 33.83 6.2, 33.79 6.38" stroke="#000000" stroke-width="4" fill="none"></path></g><g stroke-linecap="round"><g transform="translate(679.5784874771464 632.0845745903582) rotate(0 16.061976153439048 2.3754310806160674)"><path d="M0 -0.03 C0.23 0.28, -1.39 1.06, 1.37 1.84 C4.14 2.63, 12.84 4.36, 16.59 4.7 C20.34 5.04, 21.25 4.67, 23.88 3.88 C26.52 3.08, 30.97 0.59, 32.39 -0.07 M0 -0.03 C0.23 0.28, -1.39 1.06, 1.37 1.84 C4.14 2.63, 12.84 4.36, 16.59 4.7 C20.34 5.04, 21.25 4.67, 23.88 3.88 C26.52 3.08, 30.97 0.59, 32.39 -0.07" stroke="white" stroke-width="4" fill="none"></path></g></g><g stroke-linecap="round"><g transform="translate(678.6411172014306 644.356209710936) rotate(0 17.280267863940935 2.8706290486518355)"><path d="M0 0 C0.52 0.35, 0.48 1.25, 3.11 2.11 C5.74 2.97, 11.86 4.6, 15.78 5.16 C19.7 5.72, 23.5 5.98, 26.63 5.47 C29.76 4.97, 33.24 2.68, 34.56 2.12 M0 0 C0.52 0.35, 0.48 1.25, 3.11 2.11 C5.74 2.97, 11.86 4.6, 15.78 5.16 C19.7 5.72, 23.5 5.98, 26.63 5.47 C29.76 4.97, 33.24 2.68, 34.56 2.12" stroke="white" stroke-width="4" fill="none"></path></g></g><g stroke-linecap="round"><g transform="translate(679.0799302547235 657.7996862474224) rotate(0 16.9238216247399 3.497348272840611)"><path d="M0 0 C0.09 0.19, -0.35 0.41, 0.56 1.12 C1.47 1.83, 3.18 3.37, 5.46 4.27 C7.73 5.18, 10.51 6.13, 14.2 6.53 C17.88 6.93, 24.27 7.26, 27.55 6.68 C30.83 6.09, 32.82 3.62, 33.87 3.01 M0 0 C0.09 0.19, -0.35 0.41, 0.56 1.12 C1.47 1.83, 3.18 3.37, 5.46 4.27 C7.73 5.18, 10.51 6.13, 14.2 6.53 C17.88 6.93, 24.27 7.26, 27.55 6.68 C30.83 6.09, 32.82 3.62, 33.87 3.01" stroke="white" stroke-width="4" fill="none"></path></g></g><g transform="translate(366.06997643924615 183.53130238165437) rotate(0 59.55074478897723 13.357176401265917)"><text x="0" y="21.71435280253183" font-family="Cascadia, Segoe UI Emoji" font-size="22.26196066877652px" fill="#000000" text-anchor="start" style="white-space: pre;" direction="ltr">The World</text></g><g stroke-linecap="round"><g transform="translate(449.55487134915495 276.34121484812374) rotate(0 112.01425524315437 172.26912766148334)"><path d="M0 0 C74.92 115.22, 149.83 230.43, 224.03 344.54 M0 0 C46.82 72, 93.63 144, 224.03 344.54" stroke="#000000" stroke-width="1" fill="none"></path></g><g transform="translate(449.55487134915495 276.34121484812374) rotate(0 112.01425524315437 172.26912766148334)"><path d="M224.03 344.54 L211.3 336.6 L221.93 329.69 L224.03 344.54" stroke="none" stroke-width="0" fill="#000000" fill-rule="evenodd"></path><path d="M224.03 344.54 C219.77 341.88, 215.52 339.23, 211.3 336.6 M224.03 344.54 C221.37 342.88, 218.71 341.22, 211.3 336.6 M211.3 336.6 C213.74 335.01, 216.18 333.43, 221.93 329.69 M211.3 336.6 C213.49 335.18, 215.67 333.76, 221.93 329.69 M221.93 329.69 C222.65 334.79, 223.37 339.9, 224.03 344.54 M221.93 329.69 C222.64 334.67, 223.34 339.65, 224.03 344.54 M224.03 344.54 C224.03 344.54, 224.03 344.54, 224.03 344.54 M224.03 344.54 C224.03 344.54, 224.03 344.54, 224.03 344.54" stroke="#000000" stroke-width="1" fill="none"></path></g></g><g transform="translate(453.5519719230965 407.1709874566965) rotate(59.09576755610331 129.5 12)"><text x="0" y="20" font-family="Cascadia, Segoe UI Emoji" font-size="20px" fill="#000000" text-anchor="start" style="white-space: pre;" direction="ltr">... is modeled with ..</text></g><g transform="translate(675.2703301494096 685.344066239925) rotate(0 26.714352802531835 13.357176401265917)"><text x="0" y="21.71435280253183" font-family="Cascadia, Segoe UI Emoji" font-size="22.26196066877652px" fill="#000000" text-anchor="start" style="white-space: pre;" direction="ltr">Data</text></g><g stroke-linecap="round"><g transform="translate(665.2122539259108 633.2821329148312) rotate(0 -227.68644006588673 -0.21536523644209637)"><path d="M0 0 C-96.04 -0.09, -192.08 -0.18, -455.37 -0.43 M0 0 C-176.68 -0.17, -353.35 -0.33, -455.37 -0.43" stroke="#000000" stroke-width="1" fill="none"></path></g><g transform="translate(665.2122539259108 633.2821329148312) rotate(0 -227.68644006588673 -0.21536523644209637)"><path d="M-455.37 -0.43 L-441.77 -6.76 L-441.78 5.92 L-455.37 -0.43" stroke="none" stroke-width="0" fill="#000000" fill-rule="evenodd"></path><path d="M-455.37 -0.43 C-452.5 -1.76, -449.64 -3.1, -441.77 -6.76 M-455.37 -0.43 C-450.1 -2.89, -444.82 -5.34, -441.77 -6.76 M-441.77 -6.76 C-441.78 -3.66, -441.78 -0.56, -441.78 5.92 M-441.77 -6.76 C-441.78 -2.32, -441.78 2.11, -441.78 5.92 M-441.78 5.92 C-446.88 3.54, -451.98 1.16, -455.37 -0.43 M-441.78 5.92 C-445.63 4.12, -449.48 2.33, -455.37 -0.43 M-455.37 -0.43 C-455.37 -0.43, -455.37 -0.43, -455.37 -0.43 M-455.37 -0.43 C-455.37 -0.43, -455.37 -0.43, -455.37 -0.43" stroke="#000000" stroke-width="1" fill="none"></path></g></g><g transform="translate(271.8858359302751 647.1899735250717) rotate(0.04035610731225142 170.5 12)"><text x="0" y="20" font-family="Cascadia, Segoe UI Emoji" font-size="20px" fill="#000000" text-anchor="start" style="white-space: pre;" direction="ltr">... is analyzed to create ...</text></g><g transform="translate(142.55560702843582 688.5894353502947) rotate(0 59.55074478897723 13.357176401265917)"><text x="0" y="21.71435280253183" font-family="Cascadia, Segoe UI Emoji" font-size="22.26196066877652px" fill="#000000" text-anchor="start" style="white-space: pre;" direction="ltr">Knowledge</text></g><g stroke-linecap="round"><g transform="translate(199.79763791651317 611.3829335713202) rotate(0 101.39127452886243 -168.38015689821722)"><path d="M0 0 C66.55 -110.51, 133.09 -221.02, 202.78 -336.76 M0 0 C59.28 -98.45, 118.56 -196.89, 202.78 -336.76" stroke="#000000" stroke-width="1" fill="none"></path></g><g transform="translate(199.79763791651317 611.3829335713202) rotate(0 101.39127452886243 -168.38015689821722)"><path d="M202.78 -336.76 L201.2 -321.84 L190.34 -328.38 L202.78 -336.76" stroke="none" stroke-width="0" fill="#000000" fill-rule="evenodd"></path><path d="M202.78 -336.76 C202.26 -331.87, 201.74 -326.97, 201.2 -321.84 M202.78 -336.76 C202.32 -332.4, 201.86 -328.04, 201.2 -321.84 M201.2 -321.84 C198.89 -323.24, 196.58 -324.63, 190.34 -328.38 M201.2 -321.84 C197.82 -323.88, 194.43 -325.92, 190.34 -328.38 M190.34 -328.38 C193.68 -330.64, 197.03 -332.89, 202.78 -336.76 M190.34 -328.38 C194.24 -331.01, 198.14 -333.63, 202.78 -336.76 M202.78 -336.76 C202.78 -336.76, 202.78 -336.76, 202.78 -336.76 M202.78 -336.76 C202.78 -336.76, 202.78 -336.76, 202.78 -336.76" stroke="#000000" stroke-width="1" fill="none"></path></g></g><g transform="translate(132.02190639232265 428.0888778475057) rotate(302.2202469070414 141.5 12)"><text x="0" y="20" font-family="Cascadia, Segoe UI Emoji" font-size="20px" fill="#000000" text-anchor="start" style="white-space: pre;" direction="ltr">...is used to change ...</text></g><g stroke-linecap="round" transform="translate(267.43983649875656 10.157253983720494) rotate(0 171.06767365023626 73.29320789997858)"><path d="M342.14 73.29 C342.14 75.31, 341.94 77.34, 341.55 79.35 C341.16 81.36, 340.58 83.37, 339.8 85.36 C339.03 87.35, 338.06 89.33, 336.9 91.29 C335.74 93.24, 334.4 95.18, 332.87 97.09 C331.34 99, 329.62 100.89, 327.73 102.73 C325.84 104.58, 323.76 106.4, 321.52 108.18 C319.28 109.95, 316.86 111.69, 314.28 113.38 C311.7 115.07, 308.96 116.72, 306.06 118.31 C303.17 119.9, 300.12 121.45, 296.93 122.93 C293.74 124.42, 290.39 125.85, 286.93 127.22 C283.46 128.58, 279.86 129.89, 276.14 131.13 C272.42 132.37, 268.57 133.55, 264.63 134.65 C260.69 135.76, 256.63 136.79, 252.49 137.75 C248.35 138.71, 244.1 139.6, 239.78 140.41 C235.47 141.22, 231.07 141.96, 226.61 142.62 C222.16 143.27, 217.63 143.85, 213.06 144.34 C208.5 144.84, 203.87 145.25, 199.22 145.59 C194.58 145.92, 189.89 146.17, 185.19 146.34 C180.5 146.5, 175.78 146.59, 171.07 146.59 C166.36 146.59, 161.63 146.5, 156.94 146.34 C152.25 146.17, 147.56 145.92, 142.91 145.59 C138.27 145.25, 133.64 144.84, 129.07 144.34 C124.51 143.85, 119.98 143.27, 115.52 142.62 C111.07 141.96, 106.66 141.22, 102.35 140.41 C98.04 139.6, 93.79 138.71, 89.65 137.75 C85.51 136.79, 81.44 135.76, 77.5 134.65 C73.56 133.55, 69.71 132.37, 66 131.13 C62.28 129.89, 58.67 128.58, 55.21 127.22 C51.74 125.85, 48.4 124.42, 45.21 122.93 C42.02 121.45, 38.96 119.9, 36.07 118.31 C33.18 116.72, 30.43 115.07, 27.86 113.38 C25.28 111.69, 22.86 109.95, 20.62 108.18 C18.38 106.4, 16.3 104.58, 14.41 102.73 C12.52 100.89, 10.8 99, 9.27 97.09 C7.74 95.18, 6.39 93.24, 5.23 91.29 C4.08 89.33, 3.11 87.35, 2.33 85.36 C1.56 83.37, 0.97 81.36, 0.58 79.35 C0.2 77.34, 0 75.31, 0 73.29 C0 71.28, 0.2 69.25, 0.58 67.24 C0.97 65.23, 1.56 63.22, 2.33 61.23 C3.11 59.24, 4.08 57.26, 5.23 55.3 C6.39 53.35, 7.74 51.4, 9.27 49.49 C10.8 47.59, 12.52 45.7, 14.41 43.85 C16.3 42, 18.38 40.18, 20.62 38.41 C22.86 36.64, 25.28 34.89, 27.86 33.21 C30.43 31.52, 33.18 29.87, 36.07 28.28 C38.96 26.68, 42.02 25.14, 45.21 23.65 C48.4 22.17, 51.74 20.74, 55.21 19.37 C58.67 18, 62.28 16.69, 66 15.45 C69.71 14.22, 73.56 13.04, 77.5 11.93 C81.44 10.83, 85.51 9.79, 89.65 8.83 C93.79 7.87, 98.04 6.98, 102.35 6.17 C106.66 5.36, 111.07 4.63, 115.52 3.97 C119.98 3.32, 124.51 2.74, 129.07 2.24 C133.64 1.75, 138.27 1.33, 142.91 1 C147.56 0.67, 152.25 0.42, 156.94 0.25 C161.63 0.08, 166.36 0, 171.07 0 C175.78 0, 180.5 0.08, 185.19 0.25 C189.89 0.42, 194.58 0.67, 199.22 1 C203.87 1.33, 208.5 1.75, 213.06 2.24 C217.63 2.74, 222.16 3.32, 226.61 3.97 C231.07 4.63, 235.47 5.36, 239.78 6.17 C244.1 6.98, 248.35 7.87, 252.49 8.83 C256.63 9.79, 260.69 10.83, 264.63 11.93 C268.57 13.04, 272.42 14.22, 276.14 15.45 C279.86 16.69, 283.46 18, 286.93 19.37 C290.39 20.74, 293.74 22.17, 296.93 23.65 C300.12 25.14, 303.17 26.68, 306.06 28.28 C308.96 29.87, 311.7 31.52, 314.28 33.21 C316.86 34.89, 319.28 36.64, 321.52 38.41 C323.76 40.18, 325.84 42, 327.73 43.85 C329.62 45.7, 331.34 47.59, 332.87 49.49 C334.4 51.4, 335.74 53.35, 336.9 55.3 C338.06 57.26, 339.03 59.24, 339.8 61.23 C340.58 63.22, 341.16 65.23, 341.55 67.24 C341.94 69.25, 342.14 71.28, 342.14 73.29" stroke="#000000" stroke-width="1" fill="none"></path></g><g transform="translate(317.9151785007963 41.64358560463549) rotate(0 127 39)"><text x="0" y="15.5" font-family="Cascadia, Segoe UI Emoji" font-size="16px" fill="#000000" text-anchor="start" style="white-space: pre;" direction="ltr">What is being studied?</text><text x="0" y="35" font-family="Cascadia, Segoe UI Emoji" font-size="16px" fill="#000000" text-anchor="start" style="white-space: pre;" direction="ltr">Who is studying it?</text><text x="0" y="54.5" font-family="Cascadia, Segoe UI Emoji" font-size="16px" fill="#000000" text-anchor="start" style="white-space: pre;" direction="ltr">Why are they studying it?</text><text x="0" y="74" font-family="Cascadia, Segoe UI Emoji" font-size="16px" fill="#000000" text-anchor="start" style="white-space: pre;" direction="ltr">What will they do about it?</text></g></svg>