<?xml version="1.0" encoding="UTF-8" standalone="no"?>
<svg
   xmlns:dc="http://purl.org/dc/elements/1.1/"
   xmlns:cc="http://creativecommons.org/ns#"
   xmlns:rdf="http://www.w3.org/1999/02/22-rdf-syntax-ns#"
   xmlns:svg="http://www.w3.org/2000/svg"
   xmlns="http://www.w3.org/2000/svg"
   xmlns:sodipodi="http://sodipodi.sourceforge.net/DTD/sodipodi-0.dtd"
   xmlns:inkscape="http://www.inkscape.org/namespaces/inkscape"
   inkscape:version="1.0 (4035a4f, 2020-05-01)"
   inkscape:export-ydpi="96"
   inkscape:export-xdpi="96"
   inkscape:export-filename="/Users/master/Desktop/triple-diamond.png"
   sodipodi:docname="triple-diamond.svg"
   id="svg1041"
   height="1472.0279947916665"
   width="2857.0703125"
   viewBox="0 0 1428.53515625 736.0139973958333"
   version="1.1">
  <metadata
     id="metadata1045">
    <rdf:RDF>
      <cc:Work
         rdf:about="">
        <dc:format>image/svg+xml</dc:format>
        <dc:type
           rdf:resource="http://purl.org/dc/dcmitype/StillImage" />
      </cc:Work>
    </rdf:RDF>
  </metadata>
  <sodipodi:namedview
     inkscape:current-layer="g1039"
     inkscape:window-maximized="0"
     inkscape:window-y="273"
     inkscape:window-x="0"
     inkscape:cy="736.01398"
     inkscape:cx="1477.9499"
     inkscape:zoom="0.22260565"
     showgrid="false"
     id="namedview1043"
     inkscape:window-height="800"
     inkscape:window-width="1280"
     inkscape:pageshadow="2"
     inkscape:pageopacity="0"
     guidetolerance="10"
     gridtolerance="10"
     objecttolerance="10"
     borderopacity="1"
     bordercolor="#666666"
     pagecolor="#ffffff" />
  <!-- svg-source:excalidraw -->
  <defs
     id="defs835">
    <rect
       id="rect1049"
       height="756.94395"
       width="1444.258"
       y="-8.984498"
       x="-4.492249" />
    <style
       id="style833">
      @font-face {
        font-family: &quot;Virgil&quot;;
        src: url(&quot;https://excalidraw.com/Virgil.woff2&quot;);
      }
      @font-face {
        font-family: &quot;Cascadia&quot;;
        src: url(&quot;https://excalidraw.com/Cascadia.woff2&quot;);
      }
    </style>
  </defs>
  <g
     id="g847"
     stroke-linecap="round">
    <g
       id="g839"
       transform="translate(14.830729166666288 333.06315104166606) rotate(0 105.888671875 -104.73958333333337)">
      <path
         id="path837"
         fill="none"
         stroke-width="1"
         stroke="#000000"
         d="M0 0 C35.3 -34.91, 176.48 -174.57, 211.78 -209.48 M0 0 C35.3 -34.91, 176.48 -174.57, 211.78 -209.48" />
    </g>
    <g
       id="g845"
       transform="translate(14.830729166666288 333.06315104166606) rotate(0 105.888671875 -104.73958333333337)">
      <path
         id="path841"
         fill-rule="evenodd"
         fill="#000000"
         stroke-width="0"
         stroke="none"
         d="M211.78 -209.48 L206.57 -195.41 L197.65 -204.43 L211.78 -209.48" />
      <path
         id="path843"
         fill="none"
         stroke-width="1"
         stroke="#000000"
         d="M211.78 -209.48 C210.1 -204.96, 208.43 -200.43, 206.57 -195.41 M211.78 -209.48 C210.66 -206.45, 209.54 -203.42, 206.57 -195.41 M206.57 -195.41 C204.06 -197.95, 201.55 -200.48, 197.65 -204.43 M206.57 -195.41 C203.15 -198.86, 199.74 -202.32, 197.65 -204.43 M197.65 -204.43 C201.39 -205.76, 205.13 -207.1, 211.78 -209.48 M197.65 -204.43 C202.26 -206.07, 206.86 -207.72, 211.78 -209.48 M211.78 -209.48 C211.78 -209.48, 211.78 -209.48, 211.78 -209.48 M211.78 -209.48 C211.78 -209.48, 211.78 -209.48, 211.78 -209.48" />
    </g>
  </g>
  <g
     id="g859"
     stroke-linecap="round">
    <g
       id="g851"
       transform="translate(237.21679687499966 557.0149739583328) rotate(0 105.888671875 -104.73958333333337)">
      <path
         id="path849"
         fill="none"
         stroke-width="1"
         stroke="#000000"
         d="M0 0 C35.3 -34.91, 176.48 -174.57, 211.78 -209.48 M0 0 C35.3 -34.91, 176.48 -174.57, 211.78 -209.48" />
    </g>
    <g
       id="g857"
       transform="translate(237.21679687499966 557.0149739583328) rotate(0 105.888671875 -104.73958333333337)">
      <path
         id="path853"
         fill-rule="evenodd"
         fill="#000000"
         stroke-width="0"
         stroke="none"
         d="M211.78 -209.48 L206.57 -195.41 L197.65 -204.43 L211.78 -209.48" />
      <path
         id="path855"
         fill="none"
         stroke-width="1"
         stroke="#000000"
         d="M211.78 -209.48 C210.31 -205.51, 208.84 -201.54, 206.57 -195.41 M211.78 -209.48 C210.24 -205.32, 208.7 -201.16, 206.57 -195.41 M206.57 -195.41 C203.73 -198.28, 200.89 -201.15, 197.65 -204.43 M206.57 -195.41 C203.67 -198.34, 200.77 -201.27, 197.65 -204.43 M197.65 -204.43 C202.76 -206.25, 207.87 -208.08, 211.78 -209.48 M197.65 -204.43 C201.59 -205.83, 205.53 -207.24, 211.78 -209.48 M211.78 -209.48 C211.78 -209.48, 211.78 -209.48, 211.78 -209.48 M211.78 -209.48 C211.78 -209.48, 211.78 -209.48, 211.78 -209.48" />
    </g>
  </g>
  <g
     id="g871"
     stroke-linecap="round">
    <g
       id="g863"
       transform="translate(238.03710937499955 339.6256510416662) rotate(90.24364242957557 105.88867187499994 -104.73958333333337)">
      <path
         id="path861"
         fill="none"
         stroke-width="1"
         stroke="#000000"
         d="M0 0 C35.3 -34.91, 176.48 -174.57, 211.78 -209.48 M0 0 C35.3 -34.91, 176.48 -174.57, 211.78 -209.48" />
    </g>
    <g
       id="g869"
       transform="translate(238.03710937499955 339.6256510416662) rotate(90.24364242957557 105.88867187499994 -104.73958333333337)">
      <path
         id="path865"
         fill-rule="evenodd"
         fill="#000000"
         stroke-width="0"
         stroke="none"
         d="M211.78 -209.48 L206.57 -195.41 L197.65 -204.43 L211.78 -209.48" />
      <path
         id="path867"
         fill="none"
         stroke-width="1"
         stroke="#000000"
         d="M211.78 -209.48 C209.78 -204.08, 207.78 -198.68, 206.57 -195.41 M211.78 -209.48 C210.63 -206.37, 209.48 -203.27, 206.57 -195.41 M206.57 -195.41 C204.45 -197.55, 202.34 -199.69, 197.65 -204.43 M206.57 -195.41 C204.75 -197.26, 202.92 -199.1, 197.65 -204.43 M197.65 -204.43 C201.62 -205.85, 205.59 -207.27, 211.78 -209.48 M197.65 -204.43 C202.58 -206.19, 207.51 -207.95, 211.78 -209.48 M211.78 -209.48 C211.78 -209.48, 211.78 -209.48, 211.78 -209.48 M211.78 -209.48 C211.78 -209.48, 211.78 -209.48, 211.78 -209.48" />
    </g>
  </g>
  <g
     id="g883"
     stroke-linecap="round">
    <g
       id="g875"
       transform="translate(13.766276041666174 555.0944010416663) rotate(90.90152372532023 105.888671875 -104.73958333333337)">
      <path
         id="path873"
         fill="none"
         stroke-width="1"
         stroke="#000000"
         d="M0 0 C35.3 -34.91, 176.48 -174.57, 211.78 -209.48 M0 0 C35.3 -34.91, 176.48 -174.57, 211.78 -209.48" />
    </g>
    <g
       id="g881"
       transform="translate(13.766276041666174 555.0944010416663) rotate(90.90152372532023 105.888671875 -104.73958333333337)">
      <path
         id="path877"
         fill-rule="evenodd"
         fill="#000000"
         stroke-width="0"
         stroke="none"
         d="M211.78 -209.48 L206.57 -195.41 L197.65 -204.43 L211.78 -209.48" />
      <path
         id="path879"
         fill="none"
         stroke-width="1"
         stroke="#000000"
         d="M211.78 -209.48 C210.21 -205.24, 208.64 -200.99, 206.57 -195.41 M211.78 -209.48 C210.31 -205.51, 208.84 -201.54, 206.57 -195.41 M206.57 -195.41 C204.03 -197.98, 201.5 -200.54, 197.65 -204.43 M206.57 -195.41 C203.22 -198.8, 199.87 -202.19, 197.65 -204.43 M197.65 -204.43 C202.32 -206.1, 206.99 -207.77, 211.78 -209.48 M197.65 -204.43 C202.93 -206.31, 208.21 -208.2, 211.78 -209.48 M211.78 -209.48 C211.78 -209.48, 211.78 -209.48, 211.78 -209.48 M211.78 -209.48 C211.78 -209.48, 211.78 -209.48, 211.78 -209.48" />
    </g>
  </g>
  <g
     id="g889"
     stroke-linecap="round">
    <g
       id="g887"
       transform="translate(235.03255208333303 94.67122395833303) rotate(0 -0.11718750000011369 249.248046875)">
      <path
         id="path885"
         stroke-dasharray="8 9"
         fill="none"
         stroke-width="1.5"
         stroke="#000000"
         d="M0 0 C-0.04 83.08, -0.2 415.41, -0.23 498.5" />
    </g>
  </g>
  <g
     id="g895"
     stroke-linecap="round">
    <g
       id="g893"
       transform="translate(452.46093749999966 10) rotate(0 0.49479166666662877 355.60872395833337)">
      <path
         id="path891"
         fill="none"
         stroke-width="1"
         stroke="#000000"
         d="M0 0 C0.16 118.54, 0.82 592.68, 0.99 711.22 M0 0 C0.16 118.54, 0.82 592.68, 0.99 711.22" />
    </g>
  </g>
  <g
     id="g907"
     stroke-linecap="round">
    <g
       id="g899"
       transform="translate(462.10937499999943 337.0198567708326) rotate(0 105.888671875 -104.73958333333337)">
      <path
         id="path897"
         fill="none"
         stroke-width="1"
         stroke="#000000"
         d="M0 0 C35.3 -34.91, 176.48 -174.57, 211.78 -209.48 M0 0 C35.3 -34.91, 176.48 -174.57, 211.78 -209.48" />
    </g>
    <g
       id="g905"
       transform="translate(462.10937499999943 337.0198567708326) rotate(0 105.888671875 -104.73958333333337)">
      <path
         id="path901"
         fill-rule="evenodd"
         fill="#000000"
         stroke-width="0"
         stroke="none"
         d="M211.78 -209.48 L206.57 -195.41 L197.65 -204.43 L211.78 -209.48" />
      <path
         id="path903"
         fill="none"
         stroke-width="1"
         stroke="#000000"
         d="M211.78 -209.48 C210.47 -205.93, 209.15 -202.39, 206.57 -195.41 M211.78 -209.48 C209.87 -204.33, 207.97 -199.18, 206.57 -195.41 M206.57 -195.41 C203.41 -198.61, 200.25 -201.8, 197.65 -204.43 M206.57 -195.41 C203.44 -198.58, 200.31 -201.74, 197.65 -204.43 M197.65 -204.43 C201.6 -205.84, 205.56 -207.25, 211.78 -209.48 M197.65 -204.43 C202.36 -206.11, 207.06 -207.79, 211.78 -209.48 M211.78 -209.48 C211.78 -209.48, 211.78 -209.48, 211.78 -209.48 M211.78 -209.48 C211.78 -209.48, 211.78 -209.48, 211.78 -209.48" />
    </g>
  </g>
  <g
     id="g919"
     stroke-linecap="round">
    <g
       id="g911"
       transform="translate(684.4954427083329 560.9716796874993) rotate(0 105.888671875 -104.73958333333337)">
      <path
         id="path909"
         fill="none"
         stroke-width="1"
         stroke="#000000"
         d="M0 0 C35.3 -34.91, 176.48 -174.57, 211.78 -209.48 M0 0 C35.3 -34.91, 176.48 -174.57, 211.78 -209.48" />
    </g>
    <g
       id="g917"
       transform="translate(684.4954427083329 560.9716796874993) rotate(0 105.888671875 -104.73958333333337)">
      <path
         id="path913"
         fill-rule="evenodd"
         fill="#000000"
         stroke-width="0"
         stroke="none"
         d="M211.78 -209.48 L206.57 -195.41 L197.65 -204.43 L211.78 -209.48" />
      <path
         id="path915"
         fill="none"
         stroke-width="1"
         stroke="#000000"
         d="M211.78 -209.48 C210.58 -206.25, 209.38 -203.01, 206.57 -195.41 M211.78 -209.48 C209.85 -204.27, 207.92 -199.07, 206.57 -195.41 M206.57 -195.41 C204.06 -197.95, 201.56 -200.48, 197.65 -204.43 M206.57 -195.41 C203.29 -198.73, 200.01 -202.05, 197.65 -204.43 M197.65 -204.43 C201.68 -205.87, 205.71 -207.31, 211.78 -209.48 M197.65 -204.43 C201 -205.62, 204.35 -206.82, 211.78 -209.48 M211.78 -209.48 C211.78 -209.48, 211.78 -209.48, 211.78 -209.48 M211.78 -209.48 C211.78 -209.48, 211.78 -209.48, 211.78 -209.48" />
    </g>
  </g>
  <g
     id="g931"
     stroke-linecap="round">
    <g
       id="g923"
       transform="translate(685.3157552083329 343.5823567708326) rotate(90.24364242957557 105.888671875 -104.73958333333337)">
      <path
         id="path921"
         fill="none"
         stroke-width="1"
         stroke="#000000"
         d="M0 0 C35.3 -34.91, 176.48 -174.57, 211.78 -209.48 M0 0 C35.3 -34.91, 176.48 -174.57, 211.78 -209.48" />
    </g>
    <g
       id="g929"
       transform="translate(685.3157552083329 343.5823567708326) rotate(90.24364242957557 105.888671875 -104.73958333333337)">
      <path
         id="path925"
         fill-rule="evenodd"
         fill="#000000"
         stroke-width="0"
         stroke="none"
         d="M211.78 -209.48 L206.57 -195.41 L197.65 -204.43 L211.78 -209.48" />
      <path
         id="path927"
         fill="none"
         stroke-width="1"
         stroke="#000000"
         d="M211.78 -209.48 C210.58 -206.23, 209.37 -202.98, 206.57 -195.41 M211.78 -209.48 C209.97 -204.6, 208.17 -199.73, 206.57 -195.41 M206.57 -195.41 C204.74 -197.26, 202.91 -199.11, 197.65 -204.43 M206.57 -195.41 C203.26 -198.76, 199.95 -202.1, 197.65 -204.43 M197.65 -204.43 C203.17 -206.4, 208.69 -208.37, 211.78 -209.48 M197.65 -204.43 C200.9 -205.59, 204.14 -206.75, 211.78 -209.48 M211.78 -209.48 C211.78 -209.48, 211.78 -209.48, 211.78 -209.48 M211.78 -209.48 C211.78 -209.48, 211.78 -209.48, 211.78 -209.48" />
    </g>
  </g>
  <g
     id="g943"
     stroke-linecap="round">
    <g
       id="g935"
       transform="translate(461.04492187499943 559.0511067708328) rotate(90.90152372532023 105.888671875 -104.73958333333337)">
      <path
         id="path933"
         fill="none"
         stroke-width="1"
         stroke="#000000"
         d="M0 0 C35.3 -34.91, 176.48 -174.57, 211.78 -209.48 M0 0 C35.3 -34.91, 176.48 -174.57, 211.78 -209.48" />
    </g>
    <g
       id="g941"
       transform="translate(461.04492187499943 559.0511067708328) rotate(90.90152372532023 105.888671875 -104.73958333333337)">
      <path
         id="path937"
         fill-rule="evenodd"
         fill="#000000"
         stroke-width="0"
         stroke="none"
         d="M211.78 -209.48 L206.57 -195.41 L197.65 -204.43 L211.78 -209.48" />
      <path
         id="path939"
         fill="none"
         stroke-width="1"
         stroke="#000000"
         d="M211.78 -209.48 C209.75 -203.99, 207.72 -198.51, 206.57 -195.41 M211.78 -209.48 C210.64 -206.39, 209.49 -203.31, 206.57 -195.41 M206.57 -195.41 C204.17 -197.84, 201.76 -200.27, 197.65 -204.43 M206.57 -195.41 C203.19 -198.83, 199.81 -202.24, 197.65 -204.43 M197.65 -204.43 C203.13 -206.38, 208.6 -208.34, 211.78 -209.48 M197.65 -204.43 C203.09 -206.37, 208.53 -208.32, 211.78 -209.48 M211.78 -209.48 C211.78 -209.48, 211.78 -209.48, 211.78 -209.48 M211.78 -209.48 C211.78 -209.48, 211.78 -209.48, 211.78 -209.48" />
    </g>
  </g>
  <g
     id="g949"
     stroke-linecap="round">
    <g
       id="g947"
       transform="translate(682.1158854166664 99.8909505208328) rotate(0 -0.5305989583333712 247.96874999999977)">
      <path
         id="path945"
         stroke-dasharray="8 9"
         fill="none"
         stroke-width="1.5"
         stroke="#000000"
         d="M0 0 C-0.18 82.66, -0.88 413.28, -1.06 495.94" />
    </g>
  </g>
  <g
     id="g955"
     stroke-linecap="round">
    <g
       id="g953"
       transform="translate(899.7395833333329 14.796549479166515) rotate(0 0.49479166666662877 355.60872395833337)">
      <path
         id="path951"
         fill="none"
         stroke-width="1"
         stroke="#000000"
         d="M0 0 C0.16 118.54, 0.82 592.68, 0.99 711.22 M0 0 C0.16 118.54, 0.82 592.68, 0.99 711.22" />
    </g>
  </g>
  <g
     id="g967"
     stroke-linecap="round">
    <g
       id="g959"
       transform="translate(906.4127604166664 341.87662760416595) rotate(0 105.888671875 -104.73958333333337)">
      <path
         id="path957"
         fill="none"
         stroke-width="1"
         stroke="#000000"
         d="M0 0 C35.3 -34.91, 176.48 -174.57, 211.78 -209.48 M0 0 C35.3 -34.91, 176.48 -174.57, 211.78 -209.48" />
    </g>
    <g
       id="g965"
       transform="translate(906.4127604166664 341.87662760416595) rotate(0 105.888671875 -104.73958333333337)">
      <path
         id="path961"
         fill-rule="evenodd"
         fill="#000000"
         stroke-width="0"
         stroke="none"
         d="M211.78 -209.48 L206.57 -195.41 L197.65 -204.43 L211.78 -209.48" />
      <path
         id="path963"
         fill="none"
         stroke-width="1"
         stroke="#000000"
         d="M211.78 -209.48 C210 -204.67, 208.22 -199.86, 206.57 -195.41 M211.78 -209.48 C210.6 -206.31, 209.43 -203.13, 206.57 -195.41 M206.57 -195.41 C204.73 -197.27, 202.9 -199.12, 197.65 -204.43 M206.57 -195.41 C204.43 -197.57, 202.29 -199.73, 197.65 -204.43 M197.65 -204.43 C202.58 -206.19, 207.5 -207.95, 211.78 -209.48 M197.65 -204.43 C201.07 -205.65, 204.49 -206.87, 211.78 -209.48 M211.78 -209.48 C211.78 -209.48, 211.78 -209.48, 211.78 -209.48 M211.78 -209.48 C211.78 -209.48, 211.78 -209.48, 211.78 -209.48" />
    </g>
  </g>
  <g
     id="g979"
     stroke-linecap="round">
    <g
       id="g971"
       transform="translate(1128.798828125 565.8284505208326) rotate(0 105.888671875 -104.73958333333337)">
      <path
         id="path969"
         fill="none"
         stroke-width="1"
         stroke="#000000"
         d="M0 0 C35.3 -34.91, 176.48 -174.57, 211.78 -209.48 M0 0 C35.3 -34.91, 176.48 -174.57, 211.78 -209.48" />
    </g>
    <g
       id="g977"
       transform="translate(1128.798828125 565.8284505208326) rotate(0 105.888671875 -104.73958333333337)">
      <path
         id="path973"
         fill-rule="evenodd"
         fill="#000000"
         stroke-width="0"
         stroke="none"
         d="M211.78 -209.48 L206.57 -195.41 L197.65 -204.43 L211.78 -209.48" />
      <path
         id="path975"
         fill="none"
         stroke-width="1"
         stroke="#000000"
         d="M211.78 -209.48 C210.24 -205.32, 208.7 -201.16, 206.57 -195.41 M211.78 -209.48 C210 -204.67, 208.22 -199.86, 206.57 -195.41 M206.57 -195.41 C203.09 -198.93, 199.6 -202.46, 197.65 -204.43 M206.57 -195.41 C203.79 -198.22, 201.02 -201.03, 197.65 -204.43 M197.65 -204.43 C201.49 -205.8, 205.33 -207.17, 211.78 -209.48 M197.65 -204.43 C202.01 -205.98, 206.36 -207.54, 211.78 -209.48 M211.78 -209.48 C211.78 -209.48, 211.78 -209.48, 211.78 -209.48 M211.78 -209.48 C211.78 -209.48, 211.78 -209.48, 211.78 -209.48" />
    </g>
  </g>
  <g
     id="g991"
     stroke-linecap="round">
    <g
       id="g983"
       transform="translate(1129.619140625 348.43912760416595) rotate(90.24364242957557 105.888671875 -104.73958333333337)">
      <path
         id="path981"
         fill="none"
         stroke-width="1"
         stroke="#000000"
         d="M0 0 C35.3 -34.91, 176.48 -174.57, 211.78 -209.48 M0 0 C35.3 -34.91, 176.48 -174.57, 211.78 -209.48" />
    </g>
    <g
       id="g989"
       transform="translate(1129.619140625 348.43912760416595) rotate(90.24364242957557 105.888671875 -104.73958333333337)">
      <path
         id="path985"
         fill-rule="evenodd"
         fill="#000000"
         stroke-width="0"
         stroke="none"
         d="M211.78 -209.48 L206.57 -195.41 L197.65 -204.43 L211.78 -209.48" />
      <path
         id="path987"
         fill="none"
         stroke-width="1"
         stroke="#000000"
         d="M211.78 -209.48 C210.64 -206.39, 209.49 -203.31, 206.57 -195.41 M211.78 -209.48 C210.24 -205.31, 208.69 -201.15, 206.57 -195.41 M206.57 -195.41 C203.37 -198.65, 200.17 -201.89, 197.65 -204.43 M206.57 -195.41 C204.35 -197.65, 202.14 -199.89, 197.65 -204.43 M197.65 -204.43 C201.48 -205.79, 205.3 -207.16, 211.78 -209.48 M197.65 -204.43 C200.82 -205.56, 203.99 -206.69, 211.78 -209.48 M211.78 -209.48 C211.78 -209.48, 211.78 -209.48, 211.78 -209.48 M211.78 -209.48 C211.78 -209.48, 211.78 -209.48, 211.78 -209.48" />
    </g>
  </g>
  <g
     id="g1003"
     stroke-linecap="round">
    <g
       id="g995"
       transform="translate(905.3483072916664 563.9078776041661) rotate(90.90152372532023 105.888671875 -104.73958333333337)">
      <path
         id="path993"
         fill="none"
         stroke-width="1"
         stroke="#000000"
         d="M0 0 C35.3 -34.91, 176.48 -174.57, 211.78 -209.48 M0 0 C35.3 -34.91, 176.48 -174.57, 211.78 -209.48" />
    </g>
    <g
       id="g1001"
       transform="translate(905.3483072916664 563.9078776041661) rotate(90.90152372532023 105.888671875 -104.73958333333337)">
      <path
         id="path997"
         fill-rule="evenodd"
         fill="#000000"
         stroke-width="0"
         stroke="none"
         d="M211.78 -209.48 L206.57 -195.41 L197.65 -204.43 L211.78 -209.48" />
      <path
         id="path999"
         fill="none"
         stroke-width="1"
         stroke="#000000"
         d="M211.78 -209.48 C210.33 -205.58, 208.89 -201.67, 206.57 -195.41 M211.78 -209.48 C210.19 -205.18, 208.6 -200.88, 206.57 -195.41 M206.57 -195.41 C203.44 -198.57, 200.32 -201.73, 197.65 -204.43 M206.57 -195.41 C203.97 -198.04, 201.37 -200.67, 197.65 -204.43 M197.65 -204.43 C202.59 -206.19, 207.52 -207.96, 211.78 -209.48 M197.65 -204.43 C202.93 -206.31, 208.2 -208.2, 211.78 -209.48 M211.78 -209.48 C211.78 -209.48, 211.78 -209.48, 211.78 -209.48 M211.78 -209.48 C211.78 -209.48, 211.78 -209.48, 211.78 -209.48" />
    </g>
  </g>
  <g
     id="g1009"
     stroke-linecap="round">
    <g
       id="g1007"
       transform="translate(1127.2591145833335 106.06282552083303) rotate(0 -0.5305989583333712 248.388671875)">
      <path
         id="path1005"
         stroke-dasharray="8 9"
         fill="none"
         stroke-width="1.5"
         stroke="#000000"
         d="M0 0 C-0.18 82.8, -0.88 413.98, -1.06 496.78" />
    </g>
  </g>
  <g
     id="g1013"
     transform="translate(93.84765624999966 15.391276041666288) rotate(0 122.5 21)">
    <text
       id="text1011"
       direction="ltr"
       style="white-space: pre;"
       text-anchor="middle"
       fill="#000000"
       font-size="36px"
       font-family="Helvetica, Segoe UI Emoji"
       y="33"
       x="122.5">Domain &amp; Data</text>
  </g>
  <g
     id="g1017"
     transform="translate(499.81640624999966 13.535807291666515) rotate(0 169.5 21)">
    <text
       dx="0 0 0 0 0 0 0 0 0 0 0"
       id="text1015"
       direction="ltr"
       style="white-space:pre"
       text-anchor="middle"
       fill="#000000"
       font-size="36px"
       font-family="Helvetica, 'Segoe UI Emoji'"
       y="33"
       x="169.5">Analysis &amp; Results</text>
  </g>
  <g
     id="g1021"
     transform="translate(955.2864583333334 12.617838541666401) rotate(0 222.5 21)">
    <text
       id="text1019"
       direction="ltr"
       style="white-space: pre;"
       text-anchor="middle"
       fill="#000000"
       font-size="36px"
       font-family="Helvetica, Segoe UI Emoji"
       y="33"
       x="222.5">Audience &amp; Communication</text>
  </g>
  <g
     id="g1025"
     transform="translate(112.625 662.2272135416663) rotate(0 127.99999999999994 21)">
    <text
       id="text1023"
       direction="ltr"
       style="font-size:33.3333px;white-space:pre"
       text-anchor="middle"
       fill="#000000"
       font-size="36px"
       font-family="Helvetica, 'Segoe UI Emoji'"
       y="33"
       x="128">Learn --&gt; Model</text>
  </g>
  <g
     id="g1029"
     transform="translate(473.72005208333337 658.893880208333) rotate(0 211 21)">
    <text
       id="text1027"
       direction="ltr"
       style="font-size:33.3333px;white-space:pre"
       text-anchor="middle"
       fill="#000000"
       font-size="36px"
       font-family="Helvetica, 'Segoe UI Emoji'"
       y="33"
       x="204.26163">Investigate --&gt; Conclude</text>
  </g>
  <g
     id="g1035"
     stroke-linecap="round">
    <g
       id="g1033"
       transform="translate(9.999999999999886 75.65429687499966) rotate(0 704.2675781250001 -2.978515625)">
      <path
         id="path1031"
         fill="none"
         stroke-width="1"
         stroke="#000000"
         d="M0 0 C234.76 -0.99, 1173.78 -4.96, 1408.54 -5.96 M0 0 C234.76 -0.99, 1173.78 -4.96, 1408.54 -5.96" />
    </g>
  </g>
  <g
     id="g1039"
     transform="translate(927.6927083333334 660.7493489583328) rotate(0 174 21)">
    <text
       id="text1037"
       direction="ltr"
       style="font-size:33.3333px;white-space:pre"
       text-anchor="middle"
       fill="#000000"
       font-size="36px"
       font-family="Helvetica, 'Segoe UI Emoji'"
       y="30.753876"
       x="185.23062">Empathize --&gt; Deliver</text>
  </g>
  <text
     style="fill:black;fill-opacity:1;line-height:1.25;stroke:none;font-family:sans-serif;font-style:normal;font-weight:normal;font-size:20.00000027999999830px;white-space:pre;shape-inside:url(#rect1049);"
     id="text1047"
     xml:space="preserve" />
</svg>
